<svg xmlns="http://www.w3.org/2000/svg" class="font" viewBox="0 0 217.866 60"><defs><linearGradient id="f452397d-2009-4e96-8c45-64d3907f83b5" x1="0%" x2="100%" y1="0%" y2="0%" gradientTransform="rotate(25)"><stop offset="0%" style="stop-color:#e63500;stop-opacity:1"/><stop offset="100%" style="stop-color:#ffc316;stop-opacity:1"/></linearGradient></defs><g id="3dfdd340-4a81-4451-8e7b-77fbd4fff019" fill="url(#f452397d-2009-4e96-8c45-64d3907f83b5)" transform="matrix(5.479452150239503,0,0,5.479452150239503,-1.3664417338774086,2.465753833808918)"><path d="M2.11 10.50Q1.79 10.50 1.35 10.27Q0.91 10.04 0.58 9.72Q0.25 9.39 0.25 9.18L0.25 9.18Q0.24 8.96 0.39 8.24Q0.53 7.52 0.57 7.31L0.57 7.31Q0.63 7.03 0.78 6.28Q0.94 5.53 1.04 4.89L1.04 4.89L1.15 4.23Q1.41 2.66 1.65 1.68Q1.88 0.70 2.11 0.70L2.11 0.70Q2.35 0.70 2.77 0.90Q3.18 1.09 3.54 1.39Q3.91 1.69 4.03 1.96L4.03 1.96Q4.26 2.46 4.62 4.12L4.62 4.12Q4.87 5.26 5.00 5.70L5.00 5.70Q5.60 4.79 6.54 2.91L6.54 2.91Q7.14 1.72 7.46 1.21Q7.77 0.70 8.02 0.70L8.02 0.70Q8.29 0.70 8.74 0.94Q9.20 1.18 9.54 1.50Q9.88 1.82 9.88 2.06L9.88 2.06Q9.88 2.25 9.72 3.16Q9.55 4.06 9.51 4.28L9.51 4.28L9.14 6.26Q9.00 7.08 8.85 8.43L8.85 8.43Q8.71 9.58 8.60 10.04Q8.50 10.50 8.27 10.50L8.27 10.50Q7.95 10.50 7.51 10.27Q7.07 10.04 6.74 9.72Q6.41 9.39 6.41 9.18L6.41 9.18Q6.40 9.00 6.52 8.41Q6.64 7.81 6.79 7.06L6.79 7.06Q6.92 6.45 6.93 6.37L6.93 6.37L7.43 4.82L7.24 4.75L7.10 5.03Q6.55 6.15 6.22 6.77Q5.89 7.39 5.68 7.66L5.68 7.66Q5.54 7.83 5.18 7.93Q4.82 8.04 4.47 8.04L4.47 8.04Q4.10 8.04 3.98 7.91L3.98 7.91Q3.85 7.80 3.76 7.44Q3.67 7.08 3.51 6.33L3.51 6.33Q3.49 6.17 3.36 5.58Q3.23 4.98 3.08 4.49L3.08 4.49L2.98 6.26Q2.84 7.08 2.69 8.43L2.69 8.43Q2.55 9.58 2.44 10.04Q2.34 10.50 2.11 10.50L2.11 10.50ZM13.58 2.59Q14.57 2.70 15.39 3.18Q16.21 3.67 16.67 4.34Q17.14 5.01 17.14 5.68L17.14 5.68Q17.14 6.69 16.62 7.83Q16.10 8.96 15.18 9.73Q14.25 10.50 13.12 10.50L13.12 10.50Q12.56 10.50 11.93 10.09Q11.30 9.67 10.87 9.08Q10.44 8.48 10.44 8.02L10.44 8.02Q10.44 7.17 10.65 6.26Q10.86 5.36 11.30 4.51L11.30 4.51Q11.70 4.28 12.11 4.28L12.11 4.28Q12.29 4.28 12.45 4.33L12.45 4.33Q12.39 4.16 12.39 3.93L12.39 3.93Q12.39 3.49 12.71 3.12Q13.02 2.76 13.58 2.59L13.58 2.59ZM12.61 8.90Q13.78 8.51 14.42 7.56Q15.06 6.61 15.27 5.29L15.27 5.29Q14.64 4.84 13.57 4.84L13.57 4.84Q13.30 4.84 13.16 4.86L13.16 4.86Q13.31 5.14 13.31 5.49L13.31 5.49Q12.95 6.06 12.75 6.75Q12.56 7.45 12.56 8.15L12.56 8.15Q12.56 8.57 12.61 8.90L12.61 8.90ZM25.00 7.55Q25.62 7.76 25.92 8.13Q26.22 8.50 26.22 8.97L26.22 8.97Q26.22 9.31 25.75 9.67Q25.27 10.02 24.61 10.26Q23.95 10.50 23.49 10.50L23.49 10.50Q23.17 10.50 22.75 10.25Q22.33 10.00 22.03 9.67Q21.73 9.34 21.73 9.16L21.73 9.16Q21.73 9.02 22.04 8.06L22.04 8.06Q22.58 6.40 22.58 5.96L22.58 5.96Q22.58 5.80 22.50 5.80L22.50 5.80Q21.94 5.80 20.41 7.76L20.41 7.76Q20.36 7.98 20.29 8.32Q20.23 8.65 20.20 8.79L20.20 8.79Q20.05 9.62 19.91 10.06Q19.78 10.50 19.57 10.50L19.57 10.50Q19.21 10.50 18.75 10.26Q18.30 10.01 17.97 9.68Q17.64 9.35 17.64 9.13L17.64 9.13Q17.64 8.88 17.82 8.39Q18.00 7.90 18.37 7.04L18.37 7.04Q18.65 6.38 18.79 6.01Q18.93 5.64 18.93 5.49L18.93 5.49Q18.93 5.38 18.79 5.24Q18.66 5.11 18.40 4.91L18.40 4.91Q18.09 4.68 17.94 4.54Q17.79 4.40 17.79 4.24L17.79 4.24Q17.79 3.95 18.07 3.56Q18.34 3.16 18.71 2.88Q19.08 2.60 19.35 2.60L19.35 2.60Q19.64 2.60 20.03 2.87Q20.41 3.14 20.70 3.48Q20.99 3.82 20.99 4.00L20.99 4.00Q20.99 4.34 20.91 4.83Q20.83 5.32 20.71 5.80L20.71 5.80Q21.73 4.45 22.40 3.72Q23.07 2.98 23.45 2.98L23.45 2.98Q23.72 2.98 24.09 3.25Q24.47 3.51 24.75 3.86Q25.02 4.20 25.02 4.38L25.02 4.38Q25.00 4.62 24.82 5.19Q24.64 5.77 24.30 6.72L24.30 6.72Q23.86 7.95 23.73 8.39L23.73 8.39Q24.16 8.16 24.41 8.00Q24.65 7.84 25.00 7.55L25.00 7.55ZM29.76 2.20Q29.50 2.20 29.13 1.98Q28.76 1.76 28.49 1.46Q28.22 1.16 28.22 0.92L28.22 0.92Q28.22 0.55 28.42 0.17Q28.62-0.21 28.91-0.38L28.91-0.38Q29.05-0.45 29.36-0.45L29.36-0.45Q29.86-0.45 30.37-0.22Q30.88 0 31.00 0.34L31.00 0.34Q31.02 0.41 31.02 0.55L31.02 0.55Q31.02 0.87 30.83 1.26Q30.63 1.65 30.34 1.92Q30.04 2.20 29.76 2.20L29.76 2.20ZM28.81 10.50Q28.45 10.50 27.99 10.26Q27.54 10.01 27.21 9.68Q26.88 9.35 26.88 9.13L26.88 9.13Q26.88 8.88 27.06 8.39Q27.24 7.90 27.61 7.04L27.61 7.04Q27.89 6.38 28.03 6.01Q28.17 5.64 28.17 5.49L28.17 5.49Q28.17 5.38 28.04 5.24Q27.90 5.11 27.64 4.91L27.64 4.91Q27.33 4.68 27.18 4.54Q27.03 4.40 27.03 4.24L27.03 4.24Q27.03 3.95 27.31 3.56Q27.58 3.16 27.95 2.88Q28.32 2.60 28.59 2.60L28.59 2.60Q28.91 2.60 29.30 2.88Q29.68 3.16 29.95 3.55Q30.23 3.93 30.23 4.17L30.23 4.17Q30.23 4.79 29.91 5.93Q29.60 7.07 29.11 8.39L29.11 8.39Q29.44 8.23 29.69 8.06Q29.95 7.90 30.39 7.55L30.39 7.55Q31.02 7.76 31.32 8.14Q31.61 8.53 31.61 8.97L31.61 8.97Q31.61 9.34 31.14 9.69Q30.67 10.04 30.00 10.27Q29.33 10.50 28.81 10.50L28.81 10.50ZM35.21 5.70Q36.23 4.34 36.83 3.66Q37.44 2.98 37.90 2.98L37.90 2.98Q38.22 2.98 38.56 3.29Q38.91 3.60 39.13 4.02Q39.35 4.45 39.35 4.75L39.35 4.75Q39.35 5.54 38.73 6.33Q38.11 7.13 37.16 7.76L37.16 7.76Q37.44 8.02 37.63 8.16Q37.83 8.30 38.05 8.39L38.05 8.39Q38.49 8.25 39.14 7.88L39.14 7.88Q39.56 8.13 39.79 8.47Q40.01 8.81 40.01 9.14L40.01 9.14Q40.01 9.73 39.48 10.12Q38.95 10.50 38.15 10.50L38.15 10.50Q37.49 10.50 36.94 10.12Q36.39 9.73 36.03 9.08Q35.67 8.43 35.55 7.67L35.55 7.67L35.81 7.24Q36.58 6.93 36.98 6.52Q37.38 6.12 37.38 5.80L37.38 5.80Q37.38 5.66 37.30 5.58Q37.23 5.50 37.10 5.50L37.10 5.50Q36.79 5.50 36.34 5.92Q35.90 6.33 35.10 7.20L35.10 7.20Q35.08 7.21 34.78 7.56L34.78 7.56Q34.73 8.65 34.57 9.58Q34.40 10.50 34.10 10.50L34.10 10.50Q33.75 10.50 33.29 10.26Q32.83 10.02 32.50 9.70Q32.17 9.37 32.17 9.13L32.17 9.13Q32.17 8.96 32.28 8.55Q32.40 8.13 32.55 7.63L32.55 7.63Q33.10 5.84 33.40 4.42L33.40 4.42Q33.57 3.64 33.70 2.80L33.70 2.80Q33.89 1.68 34.03 1.08Q34.17 0.48 34.39 0.06Q34.61-0.35 34.93-0.35L34.93-0.35Q35.17-0.35 35.64-0.06Q36.11 0.22 36.47 0.60Q36.83 0.97 36.83 1.20L36.83 1.20Q36.83 1.41 36.69 1.67Q36.54 1.93 36.20 2.41L36.20 2.41Q36.13 2.51 35.95 2.80Q35.76 3.09 35.67 3.29L35.67 3.29Q35.50 3.70 35.30 4.33Q35.10 4.96 34.96 5.56L34.96 5.56L35.21 5.70Z"/></g></svg>